<mxfile host="app.diagrams.net" modified="2023-07-27T17:51:27.098Z" agent="Mozilla/5.0 (Windows NT 10.0; Win64; x64) AppleWebKit/537.36 (KHTML, like Gecko) Chrome/114.0.0.0 Safari/537.36" etag="_-zi06U8uCGigIG80jxz" version="21.5.2" type="github">
  <diagram name="Sida-1" id="pk7VpM_iNbKXU3TP_tGt">
    <mxGraphModel dx="2128" dy="1537" grid="1" gridSize="10" guides="1" tooltips="1" connect="1" arrows="1" fold="1" page="1" pageScale="1" pageWidth="827" pageHeight="1169" math="0" shadow="0">
      <root>
        <mxCell id="0" />
        <mxCell id="1" parent="0" />
        <mxCell id="94k2L1fJDXTinIjn2RlT-2" value="Evant Course Manager Use Cases and Bounded Contexts v 1.0" style="rounded=0;whiteSpace=wrap;html=1;" vertex="1" parent="1">
          <mxGeometry x="120" y="60" width="570" height="60" as="geometry" />
        </mxCell>
      </root>
    </mxGraphModel>
  </diagram>
</mxfile>
